<svg xmlns="http://www.w3.org/2000/svg" viewBox="0 0 340 330" role="img" aria-label="What to Eat in Malaysia">
  <defs>
    <mask id="crescent-cut-b">
      <rect x="0" y="0" width="140" height="80" fill="black"/>
      <circle cx="52" cy="40" r="27" fill="white"/>
      <circle cx="64" cy="40" r="22" fill="black"/>
    </mask>
    <symbol id="mflag-b" viewBox="0 0 280 140" preserveAspectRatio="none">
      <rect x="0" y="0" width="280" height="140" fill="#F7EEDC"/>
      <rect x="0" y="0" width="280" height="10" fill="#CC0001"/>
      <rect x="0" y="20" width="280" height="10" fill="#CC0001"/>
      <rect x="0" y="40" width="280" height="10" fill="#CC0001"/>
      <rect x="0" y="60" width="280" height="10" fill="#CC0001"/>
      <rect x="0" y="80" width="280" height="10" fill="#CC0001"/>
      <rect x="0" y="100" width="280" height="10" fill="#CC0001"/>
      <rect x="0" y="120" width="280" height="10" fill="#CC0001"/>
      <rect x="0" y="0" width="140" height="80" fill="#010066"/>
      <rect x="0" y="0" width="140" height="80" fill="#FFCC00" mask="url(#crescent-cut-b)"/>
      <path transform="translate(99 40) scale(0.235)" fill="#FFCC00" d="M0,-100 L9.79,-42.9 L43.39,-90.1 L27.43,-34.4 L78.18,-62.35 L39.64,-19.09 L97.49,-22.25 L44,0 L97.49,22.25 L39.64,19.09 L78.18,62.35 L27.43,34.4 L43.39,90.1 L9.79,42.9 L0,100 L-9.79,42.9 L-43.39,90.1 L-27.43,34.4 L-78.18,62.35 L-39.64,19.09 L-97.49,22.25 L-44,0 L-97.49,-22.25 L-39.64,-19.09 L-78.18,-62.35 L-27.43,-34.4 L-43.39,-90.1 L-9.79,-42.9 Z"/>
    </symbol>
    <mask id="flag-bowl-inner-b">
      <path d="M48 190 H292 C292 244 240 274 170 274 S48 244 48 190 Z" fill="white"/>
    </mask>
    <g id="noodle-bowl-b">
      <g fill="none" stroke="#16204a" stroke-width="8" stroke-linecap="round" transform="translate(0 22)">
        <path d="M120 104 C108 128 134 140 122 164 C114 180 128 180 126 196"/>
        <path d="M140 110 C128 134 154 146 142 170 C134 186 148 186 146 198"/>
        <path d="M160 114 C148 138 174 150 162 174 C154 190 168 190 166 200"/>
      </g>
      <path d="M36 178 H304 C304 246 246 282 170 282 S36 246 36 178 Z" fill="#16204a"/>
      <g mask="url(#flag-bowl-inner-b)">
        <use href="#mflag-b" x="48" y="182" width="244" height="122"/>
      </g>
      <g transform="translate(0 22)">
        <path d="M314 58 L314 72 L116 108 L114 98 Z" fill="#16204a"/>
        <path d="M314 84 L314 98 L120 118 L118 108 Z" fill="#16204a"/>
      </g>
    </g>
  </defs>
  <use href="#noodle-bowl-b"/>
  <circle cx="120" cy="292" r="15" fill="#16204a"/>
  <circle cx="84" cy="318" r="9" fill="#16204a"/>
</svg>
